#N canvas 619 260 941 503 12;
#X obj 110 134 pyaddlist;
#X msg 75 25 import minusimple;
#X obj 110 159 print;
#X msg 209 94 random_matrix 100 200 300;
#X msg 126 64 add_list 100 200 300;
#X obj 355 298 vs.group 100;
#X obj 355 243 until;
#X obj 355 268 random 1000;
#X msg 355 214 100;
#X obj 355 323 vs.prepend add_list;
#X msg 231 163 sum 1 4 6 8;
#X msg 233 132 import builtins;
#X connect 0 0 2 0;
#X connect 1 0 0 0;
#X connect 3 0 0 0;
#X connect 4 0 0 0;
#X connect 5 0 9 0;
#X connect 6 0 7 0;
#X connect 7 0 5 0;
#X connect 8 0 6 0;
#X connect 9 0 0 0;
#X connect 10 0 0 0;
#X connect 11 0 0 0;
