#N canvas 503 204 1399 823 12;
#X obj 93 124 hworld;
#X obj 93 89 bng 15 250 50 0 empty empty empty 17 7 0 10 -262144 -1
-1;
#X floatatom 249 101 5 0 0 0 - - -;
#X obj 249 31 tgl 15 0 empty empty empty 17 7 0 10 -262144 -1 -1 0
1;
#X obj 249 51 metro 100;
#X obj 249 75 random 10;
#X floatatom 93 148 5 0 0 0 - - -;
#X floatatom 314 25 5 0 0 0 - - -;
#X obj 87 229 timer;
#X obj 93 196 bng 15 250 50 0 empty empty empty 17 7 0 10 -262144 -1
-1;
#X obj 87 253 print;
#X msg 57 51 func simplest \$1;
#X msg 55 22 import thesimple;
#X msg 194 176 func random;
#X msg 195 210 func randrange 100;
#X msg 179 268 func abs -14.2;
#X msg 189 237 import builtins;
#X msg 193 150 import random;
#X connect 0 0 6 0;
#X connect 1 0 0 0;
#X connect 3 0 4 0;
#X connect 4 0 5 0;
#X connect 4 0 13 0;
#X connect 5 0 2 0;
#X connect 6 0 9 0;
#X connect 7 0 4 1;
#X connect 8 0 10 0;
#X connect 9 0 8 1;
#X connect 9 0 8 0;
#X connect 11 0 0 0;
#X connect 12 0 0 0;
#X connect 13 0 0 0;
#X connect 14 0 0 0;
#X connect 15 0 0 0;
#X connect 16 0 0 0;
#X connect 17 0 0 0;
