#N canvas 203 503 905 534 12;
#X obj 93 124 hworld;
#X obj 93 89 bng 15 250 50 0 empty empty empty 17 7 0 10 -262144 -1
-1;
#X floatatom 249 101 5 0 0 0 - - -;
#X obj 249 31 tgl 15 0 empty empty empty 17 7 0 10 -262144 -1 -1 0
1;
#X obj 249 51 metro 100;
#X obj 249 75 random 10;
#X obj 307 145 text;
#X floatatom 93 148 5 0 0 0 - - -;
#X floatatom 314 25 5 0 0 0 - - -;
#X obj 89 210 timer;
#X obj 95 177 bng 15 250 50 0 empty empty empty 17 7 0 10 -262144 -1
-1;
#X obj 89 234 print;
#X connect 0 0 7 0;
#X connect 1 0 0 0;
#X connect 2 0 0 0;
#X connect 3 0 4 0;
#X connect 4 0 5 0;
#X connect 5 0 2 0;
#X connect 7 0 10 0;
#X connect 8 0 4 1;
#X connect 9 0 11 0;
#X connect 10 0 9 1;
#X connect 10 0 9 0;
