#N canvas 508 78 1236 807 12;
#N canvas 0 50 450 250 (subpatch) 0;
#X array tastoma 48000 float 0;
#X coords 0 1 47999 -1 200 140 1;
#X restore 90 68 graph;
#X obj 300 163 tastomarray tastoma;
#X obj 300 90 bng 52 250 50 0 empty empty empty 17 7 0 10 #fcfcfc #000000 #000000;
#X msg 160 233 const 0;
#X obj 160 258 s tastoma;
#X obj 74 248 bng 15 250 50 0 empty empty empty 17 7 0 10 #fcfcfc #000000 #000000;
#X obj 74 268 openpanel;
#X msg 74 293 read -resize \$1 tastoma;
#X obj 74 318 soundfiler;
#X floatatom 74 343 0 0 0 0 - - - 0;
#X obj 300 318 route start stop;
#X obj 300 287 list trim;
#X obj 300 366 timer;
#X floatatom 300 390 0 0 0 0 - - - 0;
#X obj 380 376 bng 15 250 50 0 empty empty empty 17 7 0 10 #fcfcfc #000000 #000000;
#X obj 555 182 bng 25 250 50 0 empty empty empty 17 7 0 10 #e4e4e4 #4d4d4d #373737;
#X obj 614 293 samplerate~;
#X obj 555 496 tabwrite~ tastoma;
#X obj 300 192 print;
#X obj 614 322 / 8000;
#X obj 787 376 line~;
#X obj 614 421 *~;
#X obj 555 243 t b b b b, f 29;
#X msg 787 343 0.5 \, 1 1000;
#X obj 614 366 saw~;
#X msg 725 293 0;
#X connect 1 0 18 0;
#X connect 2 0 1 0;
#X connect 3 0 4 0;
#X connect 5 0 6 0;
#X connect 6 0 7 0;
#X connect 7 0 8 0;
#X connect 8 0 9 0;
#X connect 10 0 12 0;
#X connect 10 1 12 1;
#X connect 11 0 10 0;
#X connect 12 0 13 0;
#X connect 14 0 12 1;
#X connect 15 0 22 0;
#X connect 16 0 19 0;
#X connect 19 0 24 0;
#X connect 20 0 21 1 32.................G....70++++A....e8+++SA....;
#X connect 21 0 17 0;
#X connect 22 0 17 0;
#X connect 22 1 16 0;
#X connect 22 2 25 0;
#X connect 22 3 23 0;
#X connect 23 0 20 0;
#X connect 24 0 21 0;
#X connect 25 0 24 1 32.................j....T5+++OI....k9+++6B....;
