#N canvas 802 488 761 514 12;
#X obj 102 169 py;
#X msg 45 30 import random;
#X msg 284 149 func random;
#X floatatom 102 194 5 0 0 0 - - -;
#X msg 102 61 random;
#X msg 112 87 randrange 100;
#X msg 244 65 import builtins;
#X msg 260 108 print 8;
#X connect 0 0 3 0;
#X connect 1 0 0 0;
#X connect 2 0 0 0;
#X connect 4 0 0 0;
#X connect 5 0 0 0;
#X connect 6 0 0 0;
#X connect 7 0 0 0;
