#N canvas 802 488 761 514 12;
#X msg 45 30 import random;
#X msg 284 149 func random;
#X floatatom 80 283 5 0 0 0 - - -;
#X msg 102 61 random;
#X msg 112 87 randrange 100;
#X msg 244 65 import builtins;
#X msg 260 108 print 8;
#X obj 102 169 newpy;
#X msg 220 233 import minusimple;
#X floatatom 426 147 5 0 0 0 - - -;
#X msg 420 190 simplest \$1;
#X obj 41 237 print;
#X msg 225 22 casual;
#X msg 43 128 callist;
#X msg 205 276 random_matrix 10;
#X connect 0 0 7 0;
#X connect 1 0 7 0;
#X connect 3 0 7 0;
#X connect 4 0 7 0;
#X connect 5 0 7 0;
#X connect 6 0 7 0;
#X connect 7 0 11 0;
#X connect 7 0 2 0;
#X connect 8 0 7 0;
#X connect 9 0 10 0;
#X connect 10 0 7 0;
#X connect 12 0 7 0;
#X connect 13 0 7 0;
#X connect 14 0 7 0;
